<svg width="249" height="191" viewBox="0 0 249 191" fill="none" xmlns="http://www.w3.org/2000/svg">
<g filter="url(#filter0_f_18435_4419)">
<ellipse cx="121.905" cy="154.725" rx="91.609" ry="17.6726" fill="#6600EB" fill-opacity="0.35"/>
</g>
<path d="M122.912 190C175.379 190 217.912 147.467 217.912 95C217.912 42.533 175.379 0 122.912 0C70.4447 0 27.9117 42.533 27.9117 95C27.9117 147.467 70.4447 190 122.912 190Z" fill="url(#paint0_linear_18435_4419)"/>
<g filter="url(#filter1_d_18435_4419)">
<path d="M202.49 64.2913L121.082 121.104L39.6733 64.2913L114.196 12.2624C116.217 10.8538 118.622 10.0986 121.085 10.0986C123.549 10.0986 125.953 10.8538 127.974 12.2624L142.839 22.6547L146.731 25.3575L185.922 52.7233L190.05 55.6221L202.49 64.2913Z" fill="#F3EBFF"/>
</g>
<path d="M107.845 111.868L39.6733 160.342V64.2915L107.845 111.868Z" fill="url(#paint1_linear_18435_4419)"/>
<g filter="url(#filter2_f_18435_4419)">
<ellipse cx="160.857" cy="62.3952" rx="30.2959" ry="9.73797" fill="#14A800" fill-opacity="0.3"/>
</g>
<path d="M134.325 111.868L202.497 160.342V64.2915L134.325 111.868Z" fill="url(#paint2_linear_18435_4419)"/>
<path d="M39.6733 160.342L114.108 107.422C116.146 105.971 118.584 105.191 121.085 105.191C123.586 105.191 126.025 105.971 128.062 107.422L202.49 160.342H39.6733Z" fill="url(#paint3_linear_18435_4419)"/>
<path d="M162.258 56.2762C164.531 56.2762 166.118 54.7252 166.118 52.5609C166.118 50.3966 164.531 48.8455 162.258 48.8455C160.022 48.8455 158.398 50.3966 158.398 52.5609C158.398 54.7252 160.022 56.2762 162.258 56.2762ZM165.36 47.5109C165.36 44.9859 166.587 44.0119 168.462 43.038C170.987 41.7394 172.863 39.6112 172.863 36.5812C172.863 32.0723 168.571 28.898 162.835 28.898C156.775 28.898 152.447 32.4691 152.014 37.483L158.976 38.7455C159.228 36.4369 160.599 34.7416 162.547 34.7416C164.098 34.7416 165.288 35.8237 165.288 37.3026C165.288 38.7816 163.953 39.6112 162.799 40.3687C160.274 42.028 159.192 43.9037 159.192 47.5109H165.36Z" fill="white"/>
<g filter="url(#filter3_d_18435_4419)">
<path d="M48.2749 46.8867C35.7946 52.7248 22.3833 56.3185 8.65597 57.5033C10.5108 61.815 23.69 83.398 62.8127 101.182C63.8703 101.344 88.3007 89.9795 101.708 82.1858C101.252 82.8367 60.063 67.6806 48.2749 46.8867Z" fill="url(#paint4_linear_18435_4419)"/>
</g>
<path d="M49.2408 57.6174C48.6664 57.219 47.939 57.1114 47.274 57.3266L25.4382 64.3911C24.656 64.6441 24.3773 65.6076 24.9036 66.2392C25.3275 66.7478 26.0212 66.942 26.6475 66.7275L49.0404 59.0576C49.6722 58.8412 49.7896 57.9982 49.2408 57.6174Z" fill="#C9DFFF"/>
<path d="M48.8621 66.3183C48.3083 65.7983 47.5133 65.625 46.7933 65.8673L31.6768 70.9547C31.0102 71.179 30.7748 72.0014 31.2218 72.5444C31.587 72.9881 32.1888 73.1591 32.7327 72.9739L48.5906 67.5745C49.1259 67.3922 49.2744 66.7054 48.8621 66.3183Z" fill="#C9DFFF"/>
<path d="M56.9757 70.6268C56.3978 70.164 55.6204 70.0359 54.9246 70.2888L37.5122 76.6173C36.8288 76.8657 36.6231 77.7327 37.1221 78.2616C37.5039 78.6662 38.0901 78.8043 38.6124 78.6127L56.7592 71.9534C57.3233 71.7464 57.4448 71.0024 56.9757 70.6268Z" fill="#C9DFFF"/>
<path d="M63.0632 83.6887C62.5279 83.0971 61.6843 82.8947 60.9388 83.1792L50.9876 86.9766C50.3766 87.2098 50.1563 87.9614 50.5448 88.4876C50.9088 88.9807 51.5578 89.1691 52.1294 88.9478L62.7956 84.8167C63.2556 84.6385 63.3941 84.0546 63.0632 83.6887Z" fill="#C9DFFF"/>
<g filter="url(#filter4_d_18435_4419)">
<path d="M192.541 76.9854C207.675 84.0643 223.937 88.422 240.582 89.8586C238.333 95.0868 222.352 121.257 174.913 142.821C173.631 143.019 144.008 129.238 127.751 119.788C128.304 120.577 178.248 102.199 192.541 76.9854Z" fill="url(#paint5_linear_18435_4419)"/>
</g>
<path d="M191.371 89.9976C192.067 89.5144 192.949 89.384 193.756 89.6449L220.233 98.211C221.181 98.5179 221.519 99.6861 220.881 100.452C220.367 101.069 219.526 101.304 218.766 101.044L191.614 91.7439C190.848 91.4814 190.705 90.4592 191.371 89.9976Z" fill="#C9DFFF"/>
<path d="M183.957 97.0486C184.629 96.4181 185.593 96.2079 186.466 96.5017L204.796 102.671C205.604 102.943 205.889 103.94 205.347 104.598C204.904 105.136 204.175 105.344 203.515 105.119L184.287 98.5718C183.637 98.3508 183.457 97.518 183.957 97.0486Z" fill="#C9DFFF"/>
<path d="M176.339 102.902C177.04 102.341 177.982 102.186 178.826 102.492L199.94 110.166C200.768 110.467 201.018 111.519 200.413 112.16C199.95 112.651 199.239 112.818 198.606 112.586L176.602 104.511C175.917 104.26 175.77 103.358 176.339 102.902Z" fill="#C9DFFF"/>
<path d="M159.196 114.613C159.845 113.896 160.868 113.65 161.772 113.995L173.839 118.6C174.58 118.883 174.847 119.794 174.376 120.432C173.934 121.03 173.147 121.259 172.454 120.99L159.521 115.981C158.963 115.765 158.795 115.057 159.196 114.613Z" fill="#C9DFFF"/>
<path d="M167.073 108.359C167.787 107.911 168.668 107.819 169.46 108.108L197.262 118.274C198.151 118.599 198.366 119.757 197.654 120.379C197.182 120.791 196.524 120.913 195.937 120.696L167.257 110.131C166.484 109.846 166.374 108.797 167.073 108.359Z" fill="#C9DFFF"/>
<path d="M69.0853 73.4815C68.4963 73.1119 67.7695 73.0355 67.1164 73.2742L44.1877 81.6577C43.4549 81.9257 43.2774 82.8811 43.865 83.3944C44.2537 83.7339 44.7968 83.8341 45.281 83.6557L68.9333 74.9428C69.5712 74.7078 69.6612 73.8427 69.0853 73.4815Z" fill="#C9DFFF"/>
<path d="M202.694 22.3608C202.694 25.1495 200.433 27.4102 197.645 27.4102C194.856 27.4102 192.595 25.1495 192.595 22.3608C192.595 19.5722 194.856 17.3115 197.645 17.3115C200.433 17.3115 202.694 19.5722 202.694 22.3608Z" fill="#C7A4F3"/>
<ellipse cx="56.9852" cy="169.513" rx="5.04932" ry="5.04932" fill="#C7A4F3"/>
<ellipse cx="178.89" cy="177.447" rx="5.04932" ry="5.04932" fill="#C7A4F3"/>
<path d="M70.4501 26.447C70.8766 24.6804 73.3894 24.6804 73.8158 26.447L75.2511 32.3928C75.4035 33.0241 75.8964 33.517 76.5277 33.6694L82.4735 35.1047C84.2402 35.5311 84.2401 38.0439 82.4735 38.4704L76.5277 39.9057C75.8964 40.0581 75.4035 40.551 75.2511 41.1823L73.8158 47.1281C73.3894 48.8947 70.8766 48.8947 70.4501 47.1281L69.0148 41.1823C68.8625 40.551 68.3695 40.0581 67.7382 39.9057L61.7924 38.4704C60.0258 38.0439 60.0258 35.5311 61.7924 35.1047L67.7382 33.6694C68.3695 33.517 68.8625 33.0241 69.0148 32.3928L70.4501 26.447Z" fill="#F3993F"/>
<path d="M214.987 151.913C215.413 150.147 217.926 150.147 218.352 151.913L219.787 157.859C219.94 158.49 220.433 158.983 221.064 159.136L227.01 160.571C228.777 160.997 228.777 163.51 227.01 163.937L221.064 165.372C220.433 165.524 219.94 166.017 219.787 166.649L218.352 172.594C217.926 174.361 215.413 174.361 214.987 172.594L213.551 166.649C213.399 166.017 212.906 165.524 212.275 165.372L206.329 163.937C204.562 163.51 204.562 160.997 206.329 160.571L212.275 159.136C212.906 158.983 213.399 158.49 213.551 157.859L214.987 151.913Z" fill="#F3993F"/>
<path d="M30.5901 137.997C31.6867 137.821 32.5621 138.898 32.1659 139.936L29.4915 146.939C29.0953 147.976 27.7245 148.196 27.0242 147.334L22.2966 141.516C21.5962 140.654 22.0915 139.358 23.1881 139.182L30.5901 137.997Z" fill="#C7A4F3"/>
<path d="M217.851 66.6087C217.577 65.5325 218.57 64.5629 219.639 64.8634L226.856 66.8914C227.925 67.1918 228.268 68.537 227.473 69.3127L222.109 74.5486C221.314 75.3242 219.977 74.9487 219.703 73.8726L217.851 66.6087Z" fill="#C7A4F3"/>
<path d="M161.793 70.5079C176.794 70.5079 188.956 58.3466 188.956 43.3448C188.956 28.343 176.794 16.1816 161.793 16.1816C146.791 16.1816 134.629 28.343 134.629 43.3448C134.629 58.3466 146.791 70.5079 161.793 70.5079Z" fill="url(#paint6_linear_18435_4419)"/>
<path d="M174.727 36.0283L158.784 51.9719L151.537 44.7248" stroke="white" stroke-width="6.62592" stroke-linecap="round" stroke-linejoin="round"/>
<defs>
<filter id="filter0_f_18435_4419" x="12.2629" y="119.019" width="219.285" height="71.4118" filterUnits="userSpaceOnUse" color-interpolation-filters="sRGB">
<feFlood flood-opacity="0" result="BackgroundImageFix"/>
<feBlend mode="normal" in="SourceGraphic" in2="BackgroundImageFix" result="shape"/>
<feGaussianBlur stdDeviation="9.01664" result="effect1_foregroundBlur_18435_4419"/>
</filter>
<filter id="filter1_d_18435_4419" x="36.788" y="10.0986" width="168.587" height="116.776" filterUnits="userSpaceOnUse" color-interpolation-filters="sRGB">
<feFlood flood-opacity="0" result="BackgroundImageFix"/>
<feColorMatrix in="SourceAlpha" type="matrix" values="0 0 0 0 0 0 0 0 0 0 0 0 0 0 0 0 0 0 127 0" result="hardAlpha"/>
<feOffset dy="2.88532"/>
<feGaussianBlur stdDeviation="1.44266"/>
<feComposite in2="hardAlpha" operator="out"/>
<feColorMatrix type="matrix" values="0 0 0 0 0 0 0 0 0 0 0 0 0 0 0 0 0 0 0.25 0"/>
<feBlend mode="normal" in2="BackgroundImageFix" result="effect1_dropShadow_18435_4419"/>
<feBlend mode="normal" in="SourceGraphic" in2="effect1_dropShadow_18435_4419" result="shape"/>
</filter>
<filter id="filter2_f_18435_4419" x="112.528" y="34.624" width="96.6583" height="55.5426" filterUnits="userSpaceOnUse" color-interpolation-filters="sRGB">
<feFlood flood-opacity="0" result="BackgroundImageFix"/>
<feBlend mode="normal" in="SourceGraphic" in2="BackgroundImageFix" result="shape"/>
<feGaussianBlur stdDeviation="9.01664" result="effect1_foregroundBlur_18435_4419"/>
</filter>
<filter id="filter3_d_18435_4419" x="3.52859e-05" y="41.1161" width="110.364" height="71.6088" filterUnits="userSpaceOnUse" color-interpolation-filters="sRGB">
<feFlood flood-opacity="0" result="BackgroundImageFix"/>
<feColorMatrix in="SourceAlpha" type="matrix" values="0 0 0 0 0 0 0 0 0 0 0 0 0 0 0 0 0 0 127 0" result="hardAlpha"/>
<feOffset dy="2.88532"/>
<feGaussianBlur stdDeviation="4.32799"/>
<feComposite in2="hardAlpha" operator="out"/>
<feColorMatrix type="matrix" values="0 0 0 0 0.0196078 0 0 0 0 0.168627 0 0 0 0 0.396078 0 0 0 0.15 0"/>
<feBlend mode="normal" in2="BackgroundImageFix" result="effect1_dropShadow_18435_4419"/>
<feBlend mode="normal" in="SourceGraphic" in2="effect1_dropShadow_18435_4419" result="shape"/>
</filter>
<filter id="filter4_d_18435_4419" x="111.115" y="75.5427" width="137.356" height="90.3631" filterUnits="userSpaceOnUse" color-interpolation-filters="sRGB">
<feFlood flood-opacity="0" result="BackgroundImageFix"/>
<feColorMatrix in="SourceAlpha" type="matrix" values="0 0 0 0 0 0 0 0 0 0 0 0 0 0 0 0 0 0 127 0" result="hardAlpha"/>
<feOffset dx="-4.37328" dy="10.82"/>
<feGaussianBlur stdDeviation="6.13131"/>
<feComposite in2="hardAlpha" operator="out"/>
<feColorMatrix type="matrix" values="0 0 0 0 0.021441 0 0 0 0 0.168056 0 0 0 0 0.395833 0 0 0 0.15 0"/>
<feBlend mode="normal" in2="BackgroundImageFix" result="effect1_dropShadow_18435_4419"/>
<feBlend mode="normal" in="SourceGraphic" in2="effect1_dropShadow_18435_4419" result="shape"/>
</filter>
<linearGradient id="paint0_linear_18435_4419" x1="122.179" y1="-30.9343" x2="124.126" y2="302.691" gradientUnits="userSpaceOnUse">
<stop stop-color="#F3EBFF" stop-opacity="0.2"/>
<stop offset="1" stop-color="#F3EBFF"/>
</linearGradient>
<linearGradient id="paint1_linear_18435_4419" x1="73.759" y1="64.2915" x2="73.759" y2="160.342" gradientUnits="userSpaceOnUse">
<stop stop-color="#8B32FF"/>
<stop offset="1" stop-color="#B08EDD"/>
</linearGradient>
<linearGradient id="paint2_linear_18435_4419" x1="168.411" y1="64.2915" x2="168.411" y2="160.342" gradientUnits="userSpaceOnUse">
<stop stop-color="#8B32FF"/>
<stop offset="1" stop-color="#B08EDD"/>
</linearGradient>
<linearGradient id="paint3_linear_18435_4419" x1="121.082" y1="105.191" x2="121.082" y2="160.342" gradientUnits="userSpaceOnUse">
<stop stop-color="#6600EB"/>
<stop offset="1" stop-color="#C599FF"/>
</linearGradient>
<linearGradient id="paint4_linear_18435_4419" x1="18.7546" y1="71.0513" x2="79.7071" y2="59.1493" gradientUnits="userSpaceOnUse">
<stop stop-color="#C6DDFF"/>
<stop offset="1" stop-color="white"/>
</linearGradient>
<linearGradient id="paint5_linear_18435_4419" x1="228.337" y1="106.286" x2="154.428" y2="91.8545" gradientUnits="userSpaceOnUse">
<stop stop-color="#C6DDFF"/>
<stop offset="1" stop-color="white"/>
</linearGradient>
<linearGradient id="paint6_linear_18435_4419" x1="134.889" y1="19.8368" x2="188.989" y2="70.6906" gradientUnits="userSpaceOnUse">
<stop stop-color="#8FE783"/>
<stop offset="1" stop-color="#20A10F"/>
</linearGradient>
</defs>
</svg>
